<?xml version="1.0" encoding="UTF-8"?>
<svg width="108pt" height="108pt" version="1.1" viewBox="0 0 108 108" xmlns="http://www.w3.org/2000/svg" xmlns:cc="http://creativecommons.org/ns#" xmlns:dc="http://purl.org/dc/elements/1.1/" xmlns:rdf="http://www.w3.org/1999/02/22-rdf-syntax-ns#">
 <defs>
  <filter id="filter_object-shadow" color-interpolation-filters="sRGB">
   <feFlood flood-color="rgb(0,0,0)" flood-opacity=".8" result="flood"/>
   <feComposite in="flood" in2="SourceGraphic" operator="in" result="composite1"/>
   <feGaussianBlur in="composite1" result="blur" stdDeviation=".7"/>
   <feOffset dx="-.7" dy="-.7" result="offset"/>
   <feComposite in="SourceGraphic" in2="offset" result="composite2"/>
  </filter>
  <filter id="filter_foreground-shadow" color-interpolation-filters="sRGB">
   <feFlood flood-color="rgb(0,0,0)" flood-opacity=".6" result="flood"/>
   <feComposite in="flood" in2="SourceGraphic" operator="in" result="composite1"/>
   <feGaussianBlur in="composite1" result="blur" stdDeviation=".7"/>
   <feOffset dx="-1.7" dy="1.7" result="offset"/>
   <feComposite in="SourceGraphic" in2="offset" result="composite2"/>
  </filter>
 </defs>
 <g id="layer_background">
  <path id="red_triangle" d="m0 108v-108h108z" fill="#de4000"/>
  <path id="green_triangle" d="m108 0v108h-108z" fill="#3dcc54" filter="url(#filter_object-shadow)"/>
 </g>
 <g id="layer_lock" transform="translate(52,52)" filter="url(#filter_object-shadow)">
  <rect id="lockbody" width="36" height="36" rx="6" fill="#eee" stroke="#000" stroke-width="1.5"/>
  <path id="keyhole" d="m18 18m2 0v5a2 2 0 1 1-4 0v-5a4 4 0 1 1 4 0"/>
  <path id="shackle" d="m28 0v-8a10.6 10.6 0 0 0-20-5" fill="none" stroke="#000" stroke-width="5"/>
 </g>
 <g id="layer_sdcard" transform="translate(62,75) rotate(-90) scale(1,-1)" filter="url(#filter_foreground-shadow)">
  <path id="plastic" d="m35 0h-35v55h46v-44z" fill="#333" stroke="#000"/>
  <g fill="#ffd700">
   <rect x="2.5" y="4" width="8" height="15" rx="2.5"/>
   <rect x="13.5" y="4" width="8" height="15" rx="2.5"/>
   <rect x="24.5" y="4" width="8" height="15" rx="2.5"/>
   <rect x="35.5" y="11" width="8" height="15" rx="2.5"/>
  </g>
 </g>
 <g id="layer_viewport" fill="none" stroke="#000" stroke-width=".5">
  <circle id="minimal_circle" cx="54" cy="54" r="33"/>
  <rect id="supposed_square" x="18" y="18" width="72" height="72"/>
 </g>
</svg>
